PathFileType	4	(X/Y/Z)	C:/Users/beibeiliu/ov580/test_trc/User2\sequence.33_training_dense_left.trc
DataRate	CameraRate	NumFrames	NumMarkers	Units	OrigDataRate	OrigDataStartFrame	OrigNumFrames
120	120	9	19	mm	120	213	424
Frame#	Time	ThumbCMC			ThumbMCP			ThumbIP			ThumbTip			IndexMCP			IndexPIP			IndexTip			MiddleMCP			MiddlePIP			MiddleTip			RingMCP			RingPIP			RingTip			PinkyMCP			PinkyPIP			PinkyTip			BackHand1			BackHand2			BackHand3	
		X0	Y0	Z0	X1	Y1	Z1	X2	Y2	Z2	X3	Y3	Z3	X4	Y4	Z4	X5	Y5	Z5	X6	Y6	Z6	X7	Y7	Z7	X8	Y8	Z8	X9	Y9	Z9	X10	Y10	Z10	X11	Y11	Z11	X12	Y12	Z12	X13	Y13	Z13	X14	Y14	Z14	X15	Y15	Z15	X16	Y16	Z16	X17	Y17	Z17	X18	Y18	Z18	
212	1.76667	-174.632	-31.2109	51.7666	-152.73	-35.8799	26.6668	-143.623	-36.2596	-9.77759	-149.893	-42.0493	-35.0212	-196.052	-1.0632	-24.0755	-184.126	-22.0209	-44.9678	-174.495	-49.9524	-22.2015	-213.258	-11.727	-28.7698	-200.843	-42.9141	-45.7498	-189.957	-59.4251	-9.84745	-229.404	-30.8567	-33.4063	-208.845	-56.2084	-38.1677	-204.603	-62.6904	-6.15574	-244.027	-46.4995	-23.1921	-220.147	-69.0987	-30.7052	-217.183	-73.0455	0.647189	-249.1	-27.2608	30.7938	-250.283	-38.0122	63.6923	-218.771	-16.2524	50.1899	
213	1.775	-175.496	-39.1203	55.9275	-147.908	-42.9862	29.0922	-140.403	-42.0668	-5.3318	-145.483	-43.7002	-36.0051	-187.305	-2.5085	-22.0179	-174.873	-23.5926	-41.1938	-173.815	-52.1967	-21.65	-205	-12.7564	-31.2822	-192.36	-39.8238	-44.8318	-189.628	-62.485	-10.293	-223.234	-28.5432	-31.6991	-204.485	-54.6724	-38.74	-199.175	-62.6276	-5.4537	-236.526	-43.3716	-24.7532	-214.136	-66.4359	-28.8929	-212.223	-72.0719	4.5952	-243.483	-24.6491	31.0524	-245.697	-37.8507	62.5039	-209.457	-17.7721	56.3294	
214	1.78333	-170.466	-43.2953	58.2906	-146.95	-46.6914	29.4425	-136.105	-47.0271	-3.4309	-141.553	-49.4845	-28.7207	-177.457	-2.23382	-16.7779	-170.235	-24.4931	-37.3963	-166.146	-54.0995	-15.4401	-197.301	-10.2609	-24.1307	-181.412	-41.5057	-40.3083	-180.93	-62.1232	-6.88825	-216.803	-26.706	-29.5715	-201.926	-52.5341	-39.3293	-199.07	-63.2578	-2.34171	-231.778	-40.4296	-24.2014	-211.023	-67.4628	-27.3551	-210.617	-72.2505	6.58203	-235.54	-19.9118	32.3457	-239.55	-35.9695	63.7404	-206.941	-17.7097	58.1087	
215	1.79167	-167.97	-46.3836	58.2524	-143.54	-50.4908	33.6101	-131.598	-50.4055	0.145277	-136.435	-51.5695	-24.9628	-172.758	-3.85027	-8.49019	-163.869	-23.009	-34.5449	-162.664	-53.2605	-16.0893	-191.134	-11.3867	-24.364	-178.145	-38.2421	-39.3624	-177.464	-63.7934	-3.79548	-206.284	-24.229	-30.3456	-197.855	-51.9027	-37.4692	-192.22	-63.3017	-3.21513	-226.367	-39.061	-25.1699	-207.101	-64.41	-28.1911	-205.168	-71.698	6.44128	-230.95	-21.4428	33.6978	-235.024	-34.1158	67.8559	-200.13	-17.4091	58.835	
216	1.8	-166.253	-49.6856	64.1716	-141.376	-51.9985	33.736	-127.437	-52.7017	4.08985	-134.945	-50.5945	-24.537	-166.363	-3.3047	-6.98783	-157.796	-26.9449	-31.7982	-156.707	-54.9406	-13.1634	-183.112	-9.46805	-18.1642	-171.325	-41.55	-36.6786	-176.775	-63.8069	-2.50032	-203.342	-22.9342	-23.8445	-192.144	-51.5782	-34.5848	-188.885	-62.8345	0.606218	-219.517	-36.4269	-22.285	-203.026	-63.2682	-27.0149	-199.879	-69.9344	7.06365	-223.789	-18.6126	36.7797	-234.303	-34.4433	64.9093	-197.31	-20.0119	61.1575	
217	1.80833	-159.065	-48.1294	63.1965	-137.679	-53.0938	36.1034	-125.276	-55.1355	7.41173	-132.682	-52.5081	-20.8772	-160.335	-3.69831	-6.06998	-153.573	-23.0317	-29.4243	-150.983	-54.5282	-9.62444	-178.552	-10.3591	-21.1044	-167.739	-40.367	-34.6091	-171.898	-64.1917	-1.44236	-197.639	-23.8615	-25.5596	-189.321	-50.9358	-33.7525	-185.438	-61.6485	4.16256	-217.406	-36.5651	-18.7776	-201.986	-65.2077	-25.9229	-199.542	-68.3208	9.23299	-220.627	-17.6036	37.9636	-230.701	-35.1766	67.3615	-194.523	-20.0944	62.7768	
218	1.81667	-158.255	-47.9118	64.5644	-135.595	-54.1469	40.8344	-121.933	-52.7448	8.2182	-127.511	-51.8276	-20.7727	-158.228	-3.58143	-2.83403	-149.877	-23.0249	-26.7694	-147.833	-54.5025	-6.47454	-177.278	-9.14536	-19.2508	-167.068	-38.6309	-33.3667	-169.089	-62.1184	1.97214	-196.39	-22.5381	-22.2091	-181.707	-51.0505	-30.3772	-184.081	-62.0918	2.03301	-216.244	-36.1016	-18.1236	-193.944	-62.5095	-22.0337	-195.135	-67.9641	11.2824	-218.627	-17.857	38.963	-230.226	-32.2181	67.1524	-193.691	-19.3517	66.7419	
219	1.825	-157.852	-47.6915	67.2283	-131.978	-53.3159	43.7173	-117.857	-50.2306	8.34403	-123.762	-52.1956	-16.33	-154.949	-2.00393	-0.0567609	-146.975	-22.7659	-25.1294	-145.693	-54.5052	-1.19999	-173.94	-8.54155	-14.4153	-164.757	-38.2419	-32.0519	-167.991	-61.3923	2.5547	-190.675	-23.126	-24.1544	-178.017	-47.5488	-29.1404	-181.578	-60.9787	6.96209	-208.37	-34.732	-16.5607	-193.847	-62.9492	-22.4606	-191.949	-66.1541	9.68585	-216.715	-18.4515	38.118	-226.435	-30.3253	69.0945	-191.27	-18.1525	64.8487	
220	1.83333	-154.944	-47.8581	71.4095	-130.479	-52.9112	46.5265	-113.284	-52.9483	14.9552	-121.518	-49.7929	-14.4448	-152.22	-1.75934	2.47426	-141.142	-23.7578	-20.867	-141.414	-52.6783	-2.57768	-168.055	-5.8878	-9.4394	-156.496	-36.3765	-28.1235	-161.997	-59.3517	7.1603	-187.227	-20.2566	-22.1899	-177.896	-47.5282	-27.511	-179.172	-58.7779	6.69136	-206.284	-33.9161	-20.0123	-189.594	-60.3244	-20.9083	-190.078	-62.9715	13.9179	-216.319	-16.8465	37.7694	-222.03	-30.2434	68.5208	-186.699	-16.8327	67.8569	
